<?xml version="1.0" encoding="utf-8"?>
<!-- Generator: Adobe Illustrator 16.0.0, SVG Export Plug-In . SVG Version: 6.00 Build 0)  -->
<!DOCTYPE svg PUBLIC "-//W3C//DTD SVG 1.1//EN" "http://www.w3.org/Graphics/SVG/1.1/DTD/svg11.dtd">
<svg version="1.1" id="Capa_1" xmlns="http://www.w3.org/2000/svg" xmlns:xlink="http://www.w3.org/1999/xlink" x="0px" y="0px"
	 width="287.395px" height="200.35px" viewBox="0 0 287.395 200.35" enable-background="new 0 0 287.395 200.35"
	 xml:space="preserve">
<g>
	<path fill="rgb(180, 98, 98)" fill-rule="evenodd" clip-rule="evenodd" d="M137.982,0c12.332,0,24.664,0,36.995,0c0.253,4.254,0.505,8.508,0.78,13.132
		c4.145,0,7.92,0,12.202,0c0,4.124,0,7.873,0,12.105c4.265,0,8.017,0,11.995,0c0,17.045,0,33.58,0,50.634c-4.115,0-7.868,0-12.118,0
		c0,4.249,0,7.996,0,12.305c-4.393,0-8.279,0-12.179,0c0,4.205,0,7.814,0,12.076c4.127,0,8.018,0,12.383,0c0,4.563,0,8.48,0,12.812
		c4.254,0,8.017,0,11.941,0c0,25.14,0,49.84,0,74.985c-4.109,0-7.873,0-12.115,0c0,4.35,0,8.262,0,12.301
		c-46.176,0-91.852,0-138.045,0c0-4.352,0-8.26,0-12.598c-4.279,0-8.039,0-12.326,0c0-4.188,0-7.924,0-12.09
		c-4.313,0-8.088,0-12.354,0c0-4.35,0-8.261,0-12.799c-4.374,0-8.257,0-12.472,0c0-4.258,0-7.878,0-11.883c-4.453,0-8.562,0-12.67,0
		c0-4.332,0-8.666,0-12.998c12.434,0,24.866,0,37.865,0c0-8.559,0-16.608,0-25.097c4.315,0,8.07,0,12.302,0
		c0-4.359,0-8.274,0-12.808c4.364,0,8.255,0,12.173,0c0-4.378,0-8.108,0-12.363c-4.241,0-8.145,0-12.554,0c0-4.259,0-7.989,0-12.227
		c-4.263,0-7.995,0-11.668,0c0-12.749,0-24.967,0-37.642c4.122,0,7.874,0,12.104,0c0-4.367,0-8.281,0-12.816
		c4.363,0,8.248,0,12.688,0c0-4.352,0-8.07,0-11.676c8.665,0,16.726,0,25.271,0c0,4.097,0,7.84,0,11.979c4.259,0,8.026,0,12.472,0
		c0,4.426,0,8.464,0,12.375c4.295,0,7.887,0,12.032,0c0-4.188,0-8.098,0-12.677c4.417,0,8.289,0,12.652,0c0-4.412,0-8.141,0-12.263
		c4.277,0,8.032,0,11.856,0C137.473,8.241,137.728,4.121,137.982,0z M137.981,74.77c12.723,0,24.761,0,37.296,0
		c0-4.131,0-7.865,0-11.968c4.275,0,8.048,0,11.768,0c0-8.444,0-16.495,0-24.946c-4.093,0-7.854,0-12.098,0
		c0-4.134,0-7.878,0-11.717c-12.545,0-24.583,0-37.126,0c0,4.045,0,7.787,0,12.067c-4.38,0-8.258,0-12.051,0
		c0,8.499,0,16.43,0,24.924c4.114,0,8.01,0,12.211,0C137.981,67.306,137.981,70.915,137.981,74.77z M62.932,38.213
		c0,4.213,0,8.122,0,12.726c-4.312,0-8.18,0-12.029,0c0,4.318,0,7.925,0,12.158c4.099,0,7.977,0,12.317,0c0,4.367,0,8.104,0,11.84
		c8.266,0,16.037,0,24.356,0c0-3.958,0-7.696,0-12.019c4.424,0,8.315,0,12.135,0c0-4.332,0-8.063,0-12.27c-4.098,0-7.851,0-12.113,0
		c0-4.395,0-8.313,0-12.435C79.308,38.213,71.539,38.213,62.932,38.213z M100.816,76.002c-0.206,4.297-0.388,8.109-0.589,12.297
		c-4.609,0-8.352,0-11.877,0c0,4.202,0,7.938,0,11.573c16.486,0,32.571,0,48.859,0c0-4.044,0-7.794,0-12.109
		c-4.183,0-8.078,0-12.465,0c0-4.299,0-8.033,0-11.761C116.602,76.002,108.977,76.002,100.816,76.002z"/>
	<path fill="rgb(180, 98, 98)" fill-rule="evenodd" clip-rule="evenodd" d="M250.238,163.026c-12.955,0-25.071,0-37.538,0c0-12.573,0-24.81,0-37.659
		c12.277,0,24.487,0,37.181,0c0-4.331,0-8.082,0-12.288c4.225,0,7.981,0,12.291,0c0-4.347,0-8.251,0-12.527
		c8.625,0,16.695,0,25.223,0c0,28.879,0,57.881,0,87.154c-8.139,0-16.238,0-24.908,0c0-3.716,0-7.451,0-11.734
		c-4.288,0-8.033,0-12.248,0C250.238,171.533,250.238,167.622,250.238,163.026z"/>
</g>
</svg>
